<?xml version="1.0" encoding="utf-8" standalone="yes"?>
<!DOCTYPE svg PUBLIC "-//W3C//DTD SVG 1.1//EN" "http://www.w3.org/Graphics/SVG/1.1/DTD/svg11.dtd">
<svg width="816" height="804" viewBox="0 0 816 804" style="fill:none;stroke:none;fill-rule:evenodd;clip-rule:evenodd;stroke-linecap:round;stroke-linejoin:round;stroke-miterlimit:1.5;" version="1.1" xmlns="http://www.w3.org/2000/svg" xmlns:xlink="http://www.w3.org/1999/xlink"><style class="text-font-style fontImports" data-font-family="Roboto">@import url('https://fonts.googleapis.com/css2?family=Roboto:wght@400;700&amp;display=block');</style><rect id="" x="0" y="0" width="816" height="804" style="fill: #ffffff;"></rect><g id="items" style="isolation: isolate"><g id="blend" style="mix-blend-mode: normal"><g id="g-root-tf_7407e17mhqfj-fill" data-item-order="-656064"><g id="tf_7407e17mhqfj-fill" stroke="none" fill="#ffffff"><g><path d="M 0 0L 816 0L 816 804L 0 804Z"></path></g></g></g><g id="g-root-3.cu_sy_mcykne17mc4cg-fill" data-item-order="-186619" transform="translate(182.00021362304688, 158)"><g id="3.cu_sy_mcykne17mc4cg-fill" stroke="none" fill="#fff2e5"><g><path d="M 10 226C 10 265.425 20.5623 302.383 39.0116 334.198L 111.696 292.064C 100.4421 272.634 94 250.069 94 226C 94 208.376 97.4539 191.559 103.7218 176.188L 135.313 194.427C 139.334 182.876 145.501 172.328 153.335 163.263L 121.747 145.025C 145.898 113.976 183.616 94.0001 226 94L 225.999 10C 106.7062 10.0003 10 106.7067 10 226Z"></path></g></g></g><g id="g-root-2.cu_sy_dhbkei17mc555-fill" data-item-order="-186615" transform="translate(211.01101684570312, 440.0390625)"><g id="2.cu_sy_dhbkei17mc555-fill" stroke="none" fill="#fffbda"><g><path d="M 196.989 159.962C 276.929 159.962 346.726 116.536 384.077 51.9873L 311.307 10C 291.332 44.5042 256.184 69.1276 214.989 74.7445L 214.989 38.2774C 209.158 39.3834 203.141 39.9621 196.989 39.9621C 190.837 39.9621 184.819 39.3834 178.989 38.2773L 178.989 74.7445C 137.803 69.1287 102.6622 44.5157 82.6846 10.0244L 10 52.1584C 47.3754 116.612 117.12 159.962 196.989 159.962Z"></path></g></g></g><g id="g-root-1.cu_sy_dhbkei17mc556-fill" data-item-order="-186611" transform="translate(397.99957275390625, 158.0009765625)"><g id="1.cu_sy_dhbkei17mc556-fill" stroke="none" fill="#e3fff2"><g><path d="M 226.001 226C 226.001 265.354 215.476 302.25 197.088 334.026L 124.319 292.039C 135.564 272.615 142.001 250.059 142.001 226C 142.001 208.376 138.547 191.558 132.278 176.187L 100.6873 194.426C 96.6659 182.874 90.4996 172.327 82.6655 163.262L 114.253 145.025C 90.1011 113.975 52.3832 94 10 94L 10.0007 10C 129.294 10 226.001 106.7065 226.001 226Z"></path></g></g></g><g id="g-root-0.cu_sy_91i2a217mc5xf-fill" data-item-order="-186607" transform="translate(302, 278)"><g id="0.cu_sy_91i2a217mc5xf-fill" stroke="none" fill="#f5f5f5"><g><path d="M 202 106C 202 159.019 159.019 202 106 202C 52.9807 202 10 159.019 10 106C 10 52.9807 52.9807 10 106 10C 159.019 10 202 52.9807 202 106Z"></path></g></g></g><g id="g-root-tx_modelsel_91i2a217mc5xg-fill" data-item-order="0" transform="translate(284, 14)"><g id="tx_modelsel_91i2a217mc5xg-fill" stroke="none" fill="#484848"><g><text style="font: bold 20px Roboto, sans-serif; white-space: pre;" font-weight="bold" font-size="20px" font-family="Roboto, sans-serif"><tspan x="15.63" y="33.5" dominant-baseline="ideographic">The Intelligence-Speed-</tspan><tspan x="61.52" y="57.5" dominant-baseline="ideographic">Price Triangle</tspan></text></g></g></g><g id="g-root-tx_costeffe_1um5t6y17mgc22-fill" data-item-order="0" transform="translate(68, 146)"><g id="tx_costeffe_1um5t6y17mgc22-fill" stroke="none" fill="#de8431"><g><text style="font: bold 20px Roboto, sans-serif; white-space: pre;" font-weight="bold" font-size="20px" font-family="Roboto, sans-serif"><tspan x="16.63" y="33.5" dominant-baseline="ideographic">Price</tspan></text></g></g></g><g id="g-root-tx_intellig_1q6cb2i17mgcub-fill" data-item-order="0" transform="translate(638, 146)"><g id="tx_intellig_1q6cb2i17mgcub-fill" stroke="none" fill="#3cc583"><g><text style="font: bold 20px Roboto, sans-serif; white-space: pre;" font-weight="bold" font-size="20px" font-family="Roboto, sans-serif"><tspan x="17.41" y="33.5" dominant-baseline="ideographic">Intelligence</tspan></text></g></g></g><g id="g-root-tx_modelsde_1d3mfwq17mexom-fill" data-item-order="0" transform="translate(14, 182)"><g id="tx_modelsde_1d3mfwq17mexom-fill" stroke="none" fill="#484848"><g><text style="font: 20px Roboto, sans-serif; white-space: pre;" font-size="20px" font-family="Roboto, sans-serif"><tspan x="15.45" y="33.5" dominant-baseline="ideographic">Models designed </tspan><tspan x="39.62" y="57.5" dominant-baseline="ideographic">to minimize </tspan><tspan x="22.38" y="81.5" dominant-baseline="ideographic">operational and </tspan><tspan x="31.51" y="105.5" dominant-baseline="ideographic">infrastructure </tspan><tspan x="66.99" y="129.5" dominant-baseline="ideographic">costs</tspan></text></g></g></g><g id="g-root-tx_modelswi_m7cave17mgc94-fill" data-item-order="0" transform="translate(626, 182)"><g id="tx_modelswi_m7cave17mgc94-fill" stroke="none" fill="#484848"><g><text style="font: 20px Roboto, sans-serif; white-space: pre;" font-size="20px" font-family="Roboto, sans-serif"><tspan x="25.34" y="33.5" dominant-baseline="ideographic">Models with </tspan><tspan x="36.53" y="57.5" dominant-baseline="ideographic">advanced </tspan><tspan x="39.23" y="81.5" dominant-baseline="ideographic">cognitive </tspan><tspan x="13.66" y="105.5" dominant-baseline="ideographic">capabilities for </tspan><tspan x="14.92" y="129.5" dominant-baseline="ideographic">complex tasks</tspan></text></g></g></g><g id="g-root-doll_1hapatm17mgdn0-fill" data-item-order="0" transform="translate(224, 266)"></g><g id="g-root-1_13z8sga17mhslq-fill" data-item-order="0" transform="translate(524, 266)"></g><g id="g-root-bala_1hgbklm17mc5qd-fill" data-item-order="0" transform="translate(350, 326)"></g><g id="g-root-half_dikikq17mgbgt-fill" data-item-order="0" transform="translate(374, 524)"></g><g id="g-root-tx_fastmode_8vvsi217mgdu1-fill" data-item-order="0" transform="translate(368, 614)"><g id="tx_fastmode_8vvsi217mgdu1-fill" stroke="none" fill="#e0cb15"><g><text style="font: bold 20px Roboto, sans-serif; white-space: pre;" font-weight="bold" font-size="20px" font-family="Roboto, sans-serif"><tspan x="11.79" y="33.5" dominant-baseline="ideographic">Speed</tspan></text></g></g></g><g id="g-root-tx_modelsop_qn5szu17mgbgv-fill" data-item-order="0" transform="translate(314, 650)"><g id="tx_modelsop_qn5szu17mgbgv-fill" stroke="none" fill="#484848"><g><text style="font: 20px Roboto, sans-serif; white-space: pre;" font-size="20px" font-family="Roboto, sans-serif"><tspan x="13.25" y="33.5" dominant-baseline="ideographic">Models optimized </tspan><tspan x="53.77" y="57.5" dominant-baseline="ideographic">for quick </tspan><tspan x="24.27" y="81.5" dominant-baseline="ideographic">response times </tspan><tspan x="23.6" y="105.5" dominant-baseline="ideographic">and low latency</tspan></text></g></g></g><g id="g-root-tf_7407e17mhqfj-stroke" data-item-order="-656064"></g><g id="g-root-3.cu_sy_mcykne17mc4cg-stroke" data-item-order="-186619" transform="translate(182.00021362304688, 158)"><g id="3.cu_sy_mcykne17mc4cg-stroke" fill="none" stroke-linecap="round" stroke-linejoin="round" stroke-miterlimit="4" stroke="#de8431" stroke-width="2"><g><path d="M 10 226C 10 265.4247 20.5623 302.3825 39.0116 334.1979L 111.6962 292.0639C 100.4421 272.634 94 250.0693 94 226C 94 208.3759 97.4539 191.5586 103.7218 176.1879L 135.3131 194.4272C 139.3345 182.8755 145.5007 172.3284 153.3348 163.2628L 121.7468 145.0255C 145.8984 113.9755 183.6163 94.0001 225.9996 94L 225.9994 10C 106.7062 10.0003 10 106.7067 10 226Z"></path></g></g></g><g id="g-root-2.cu_sy_dhbkei17mc555-stroke" data-item-order="-186615" transform="translate(211.01101684570312, 440.0390625)"><g id="2.cu_sy_dhbkei17mc555-stroke" fill="none" stroke-linecap="round" stroke-linejoin="round" stroke-miterlimit="4" stroke="#e0cb15" stroke-width="2"><g><path d="M 196.989 159.9615C 276.9289 159.9615 346.7261 116.5356 384.0772 51.9873L 311.3075 10C 291.3323 44.5042 256.1842 69.1276 214.9888 74.7445L 214.9888 38.2774C 209.1583 39.3834 203.1413 39.9621 196.989 39.9621C 190.8366 39.9621 184.8194 39.3834 178.9888 38.2773L 178.9888 74.7445C 137.8032 69.1287 102.6622 44.5157 82.6846 10.0244L 10 52.1584C 47.3754 116.6124 117.1198 159.9615 196.989 159.9615Z"></path></g></g></g><g id="g-root-1.cu_sy_dhbkei17mc556-stroke" data-item-order="-186611" transform="translate(397.99957275390625, 158.0009765625)"><g id="1.cu_sy_dhbkei17mc556-stroke" fill="none" stroke-linecap="round" stroke-linejoin="round" stroke-miterlimit="4" stroke="#3cc583" stroke-width="2"><g><path d="M 226.0007 226C 226.0007 265.3539 215.4763 302.2497 197.0885 334.0264L 124.3188 292.0391C 135.564 272.6148 142.0007 250.0591 142.0007 226C 142.0007 208.3755 138.5465 191.5578 132.2783 176.1869L 100.6873 194.4259C 96.6659 182.8743 90.4996 172.3273 82.6655 163.2616L 114.253 145.0246C 90.1011 113.9751 52.3832 94 10 94L 10.0007 10C 129.2942 10 226.0007 106.7065 226.0007 226Z"></path></g></g></g><g id="g-root-0.cu_sy_91i2a217mc5xf-stroke" data-item-order="-186607" transform="translate(302, 278)"><g id="0.cu_sy_91i2a217mc5xf-stroke" fill="none" stroke-linecap="round" stroke-linejoin="round" stroke-miterlimit="4" stroke="#969696" stroke-width="2"><g><path d="M 202 106C 202 159.0193 159.0193 202 106 202C 52.9807 202 10 159.0193 10 106C 10 52.9807 52.9807 10 106 10C 159.0193 10 202 52.9807 202 106Z"></path></g></g></g><g id="g-root-tx_modelsel_91i2a217mc5xg-stroke" data-item-order="0" transform="translate(284, 14)"></g><g id="g-root-tx_costeffe_1um5t6y17mgc22-stroke" data-item-order="0" transform="translate(68, 146)"></g><g id="g-root-tx_intellig_1q6cb2i17mgcub-stroke" data-item-order="0" transform="translate(638, 146)"></g><g id="g-root-tx_modelsde_1d3mfwq17mexom-stroke" data-item-order="0" transform="translate(14, 182)"></g><g id="g-root-tx_modelswi_m7cave17mgc94-stroke" data-item-order="0" transform="translate(626, 182)"></g><g id="g-root-doll_1hapatm17mgdn0-stroke" data-item-order="0" transform="translate(224, 266)"><g id="doll_1hapatm17mgdn0-stroke" fill="none" stroke-linecap="round" stroke-linejoin="round" stroke-miterlimit="4" stroke="#de8431" stroke-width="2"><g><path d="M 40.052002 49.914001C 42.842842 47.866676 44.523487 44.638416 44.600002 41.178001C 44.599998 34.554001 38.155998 29.177999 30.200001 29.177999C 28.629322 29.177887 27.06629 29.396656 25.556 29.828001C 24.655941 28.562813 23.394947 27.598768 21.938 27.062C 21.633621 26.957029 21.297321 27.005033 21.034468 27.190973C 20.771616 27.376913 20.614368 27.678038 20.612 28L 20.612 32.279999C 18.990255 33.484554 17.738865 35.119816 17 37L 15 37C 14.447716 37 14 37.447716 14 38L 14 44C 14 44.552284 14.447716 45 15 45L 17 45C 17.801832 47.141479 19.2029 49.007027 21.035999 50.374001L 19.784 53.773998C 19.460346 54.584473 19.602146 55.50676 20.154314 56.182575C 20.706484 56.858391 21.581985 57.18121 22.440712 57.025627C 23.299438 56.870045 24.006033 56.260582 24.285999 55.434002L 25.380001 52.466C 28.784204 53.485996 32.423317 53.406914 35.779999 52.239998L 36.958 55.439999C 37.237968 56.266582 37.944561 56.876041 38.803288 57.031628C 39.662014 57.18721 40.537518 56.864388 41.089684 56.188572C 41.641853 55.512756 41.783653 54.590473 41.459999 53.780003ZM 44.599998 41.178001C 47.799999 41.178001 49.400002 39.577999 49.400002 37.178001M 23.507999 38C 23.784142 38 24.007999 38.223858 24.007999 38.5C 24.007999 38.776142 23.784142 39 23.507999 39C 23.231857 39 23.007999 38.776142 23.007999 38.5C 23.007999 38.223858 23.231857 38 23.507999 38M 31.493999 23.546C 30.900055 18.233452 34.112659 13.23232 39.191185 11.563628C 44.269711 9.894937 49.822495 12.015953 52.495285 16.645439C 55.168072 21.274925 54.228443 27.144274 50.243999 30.708M 43.007999 16L 43.007999 14M 46 16L 41.942001 16C 40.656754 16.000898 39.552536 16.912786 39.308643 18.174677C 39.064751 19.436569 39.749653 20.694248 40.942001 21.174L 45.07 22.826C 46.261654 23.305466 46.94656 24.562025 46.703751 25.823364C 46.460941 27.084703 45.358494 27.997194 44.074001 28L 40 28M 43.007999 30L 43.007999 28"></path></g></g></g><g id="g-root-1_13z8sga17mhslq-stroke" data-item-order="0" transform="translate(524, 266)"><g id="1_13z8sga17mhslq-stroke" fill="none" stroke-linecap="round" stroke-linejoin="round" stroke-miterlimit="4" stroke="#3cc583" stroke-width="2"><g><path d="M 21.9 50.722C 24.020437 50.369061 25.810703 48.951202 26.639999 46.967999M 14.842 27.091999C 18.933346 27.809448 22.448338 30.41087 24.33 34.113998M 21.566 30.458L 25.152 27.768M 30 11.346C 29.961555 13.350931 29.599562 15.336494 28.928001 17.226M 26 19C 26 20.104568 26.89543 21 28 21C 29.10457 21 30 20.104568 30 19C 30 17.895432 29.10457 17 28 17C 26.89543 17 26 17.895432 26 19ZM 38 23C 38 24.104568 38.895432 25 40 25C 41.104568 25 42 24.104568 42 23C 42 21.895432 41.104568 21 40 21C 38.895432 21 38 21.895432 38 23ZM 45 31C 45 32.104568 45.895432 33 47 33C 48.104568 33 49 32.104568 49 31C 49 29.89543 48.104568 29 47 29C 45.895432 29 45 29.89543 45 31ZM 38 38C 38 39.104568 38.895432 40 40 40C 41.104568 40 42 39.104568 42 38C 42 36.895432 41.104568 36 40 36C 38.895432 36 38 36.895432 38 38ZM 25 27C 25 28.10457 25.895432 29 27 29C 28.10457 29 29 28.10457 29 27C 29 25.895432 28.10457 25 27 25C 25.895432 25 25 25.895432 25 27ZM 23 36C 23 37.104568 23.895432 38 25 38C 26.10457 38 27 37.104568 27 36C 27 34.895432 26.10457 34 25 34C 23.895432 34 23 34.895432 23 36ZM 57 34C 57.008011 31.185829 55.553005 28.569696 53.158001 27.092001C 53.293533 26.501471 53.363956 25.897869 53.368 25.292C 53.408073 21.133251 50.242878 17.643175 46.099998 17.278C 46.141312 15.640398 45.524818 14.054508 44.388306 12.874773C 43.251789 11.695037 41.690002 11.019809 40.052002 11C 37.462227 11.148269 35.151451 12.67555 34 15C 32.848549 12.67555 30.537773 11.148269 27.948 11C 26.309998 11.019809 24.748211 11.695037 23.611694 12.874773C 22.47518 14.054508 21.858686 15.640398 21.9 17.278C 17.755573 17.643291 14.589825 21.135719 14.632 25.296C 14.632763 25.901501 14.699829 26.505098 14.832 27.095999C 12.44329 28.57963 10.990566 31.192043 10.990566 34.003998C 10.990566 36.815956 12.44329 39.428368 14.832 40.911999C 14.699829 41.502899 14.632763 42.106499 14.632 42.711998C 14.594027 46.869217 17.758669 50.356941 21.9 50.722C 21.858686 52.3596 22.47518 53.945492 23.611694 55.125225C 24.748211 56.304962 26.309998 56.98019 27.948 57C 30.33633 57.057899 32.59996 55.93581 34 53.999996C 35.40004 55.93581 37.663666 57.057899 40.051998 56.999996C 41.690002 56.98019 43.251789 56.304962 44.388306 55.125225C 45.524818 53.945492 46.141312 52.3596 46.099998 50.722C 50.244423 50.356709 53.410175 46.864277 53.368 42.703999C 53.363956 42.098129 53.293533 41.49453 53.157997 40.903999C 55.551788 39.427048 57.006618 36.812752 57 34ZM 34 15L 34 38M 34 45.916L 34 54M 52.346001 21.326L 46.799999 24.102001C 45.179813 24.913155 43.276203 24.932337 41.639999 24.153999M 40 36C 40.593044 33.525269 42.525269 31.593044 45.000004 31.000002M 46.099998 50.722C 45.548 48.799999 44.605999 47.321999 43 47M 25 45C 25 46.104568 25.895432 47 27 47C 28.10457 47 29 46.104568 29 45C 29 43.895432 28.10457 43 27 43C 25.895432 43 25 43.895432 25 45ZM 39 47C 39 48.104568 39.895432 49 41 49C 42.104568 49 43 48.104568 43 47C 43 45.895432 42.104568 45 41 45C 39.895432 45 39 45.895432 39 47Z"></path></g></g></g><g id="g-root-bala_1hgbklm17mc5qd-stroke" data-item-order="0" transform="translate(350, 326)"><g id="bala_1hgbklm17mc5qd-stroke" fill="none" stroke-linecap="round" stroke-linejoin="round" stroke-miterlimit="4" stroke="#969696" stroke-width="2"><g><path d="M 41 68.199997C 41 70.599998 39.400002 72.199997 37 72.199997L 17 72.199997C 14.6 72.199997 13 70.599998 13 68.199997L 13 48.200199C 13 45.800201 14.6 44.200199 17 44.200199L 37 44.200199C 39.400002 44.200199 41 45.800201 41 48.200199L 41 68.199997ZM 103 65C 103 67.400002 101.400002 69 99 69L 85 69C 82.599998 69 81 67.400002 81 65L 81 51C 81 48.599998 82.599998 47 85 47L 99 47C 101.400002 47 103 48.599998 103 51L 103 65ZM 103 31C 103 33.400002 101.400002 35 99 35L 85 35C 82.599998 35 81 33.400002 81 31L 81 17C 81 14.6 82.599998 13 85 13L 99 13C 101.400002 13 103 14.6 103 17L 103 31ZM 103 99C 103 101.400002 101.400002 103 99 103L 85 103C 82.599998 103 81 101.400002 81 99L 81 85C 81 82.599998 82.599998 81 85 81L 99 81C 101.400002 81 103 82.599998 103 85L 103 99ZM 38.953598 44.625L 68.599998 25M 10 10M 41 58.200001L 69 58.200001M 10 10M 60.200001 49L 69 58.200001L 60.200001 67M 10 10M 56.599998 22.200199L 69 25.0002L 66.199997 37.400162M 10 10M 38.953598 71.774399L 68.599998 91.399597M 10 10M 56.599998 94.199997L 69 91.400002L 66.199997 79"></path></g></g></g><g id="g-root-half_dikikq17mgbgt-stroke" data-item-order="0" transform="translate(374, 524)"><g id="half_dikikq17mgbgt-stroke" fill="none" stroke-linecap="round" stroke-linejoin="round" stroke-miterlimit="4" stroke="#e0cb15" stroke-width="2"><g><path d="M 31.049999 11.006001L 35.049999 11.006001M 33.049999 11.006001L 33.049999 17.006001M 49.049999 17.006001L 52.049999 20.006001M 50.549999 18.506001L 46.675999 22.382M 19.049999 37.006001L 23.049999 37.006001M 23.049999 27.006001L 26.049999 30.006001M 23.049999 47.006001L 26.049999 44.006001M 47.049999 37.006001L 43.049999 37.006001M 43.049999 47.006001L 40.049999 44.006001M 43.049999 27.006001L 40.049999 30.006001M 33.049999 17L 33.049999 57C 44.095695 57 53.049999 48.045696 53.049999 37C 53.049999 25.954306 44.095695 17 33.050003 17Z"></path></g></g></g><g id="g-root-tx_fastmode_8vvsi217mgdu1-stroke" data-item-order="0" transform="translate(368, 614)"></g><g id="g-root-tx_modelsop_qn5szu17mgbgv-stroke" data-item-order="0" transform="translate(314, 650)"></g></g></g></svg>